<svg width="125" height="19" viewBox="0 0 125 19" fill="none" xmlns="http://www.w3.org/2000/svg">
<path fill-rule="evenodd" clip-rule="evenodd" d="M91.3261 18.0119C90.0289 18.0119 88.8359 17.7877 87.747 17.3393C86.658 16.8749 85.7212 16.2424 84.9365 15.4417C84.1679 14.641 83.5593 13.6962 83.1109 12.6072C82.6786 11.5183 82.4624 10.3412 82.4624 9.07615C82.4624 7.81105 82.6786 6.63403 83.1109 5.54508C83.5593 4.45613 84.1679 3.51131 84.9365 2.71062C85.7212 1.90992 86.658 1.28538 87.747 0.836986C88.8359 0.372583 90.0289 0.140381 91.3261 0.140381C92.6232 0.140381 93.8162 0.372583 94.9052 0.836986C95.9941 1.28538 96.9229 1.90992 97.6916 2.71062C98.4763 3.51131 99.0848 4.45613 99.5172 5.54508C99.9656 6.63403 100.19 7.81105 100.19 9.07615C100.19 10.3412 99.9656 11.5183 99.5172 12.6072C99.0848 13.6962 98.4763 14.641 97.6916 15.4417C96.9229 16.2424 95.9941 16.8749 94.9052 17.3393C93.8162 17.7877 92.6232 18.0119 91.3261 18.0119ZM91.3261 15.85C92.3029 15.85 93.1837 15.6739 93.9684 15.3216C94.7531 14.9533 95.4256 14.4648 95.9861 13.8563C96.5466 13.2478 96.979 12.5352 97.2832 11.7184C97.5875 10.8857 97.7397 10.005 97.7397 9.07615C97.7397 8.14734 97.5875 7.27458 97.2832 6.45787C96.979 5.62515 96.5466 4.90452 95.9861 4.29599C95.4256 3.68746 94.7531 3.20705 93.9684 2.85474C93.1837 2.48642 92.3029 2.30226 91.3261 2.30226C90.3492 2.30226 89.4685 2.48642 88.6838 2.85474C87.8991 3.20705 87.2265 3.68746 86.666 4.29599C86.1055 4.90452 85.6732 5.62515 85.3689 6.45787C85.0646 7.27458 84.9125 8.14734 84.9125 9.07615C84.9125 10.005 85.0646 10.8857 85.3689 11.7184C85.6732 12.5352 86.1055 13.2478 86.666 13.8563C87.2265 14.4648 87.8991 14.9533 88.6838 15.3216C89.4685 15.6739 90.3492 15.85 91.3261 15.85Z" fill="white"/>
<path d="M11.1182 0.572757L0.140625 0.572757L0.140625 2.73493L11.1182 2.73464V0.572757Z" fill="white"/>
<path d="M0.140625 7.80184L0.140625 9.96526L10.5176 9.96492V7.80304L0.140625 7.80184Z" fill="white"/>
<path d="M0.140625 17.5795L0.140625 15.417L11.5505 15.4177L11.5505 17.5795L0.140625 17.5795Z" fill="white"/>
<path d="M21.431 0.572757L23.737 0.572757L23.737 15.4177L31.5438 15.4177V17.5795H21.431L21.431 0.572757Z" fill="white"/>
<path d="M40.4929 0.572757L51.4704 0.572757V2.73464L40.4929 2.7367V0.572757Z" fill="white"/>
<path d="M40.4929 9.96526V7.80184L50.8699 7.80304V9.96492L40.4929 9.96526Z" fill="white"/>
<path d="M40.4929 15.4014V17.5795H51.9028V15.4177L40.4929 15.4014Z" fill="white"/>
<path d="M59.4532 0.572757L62.1195 0.572757L67.1159 14.4088H67.1639L72.3524 0.572757L74.8746 0.572757L68.1728 17.5795H66.0109L59.4532 0.572757Z" fill="white"/>
<path d="M113.138 0.572757L110.111 0.572757V17.5795H112.417V3.59939H112.465L121.929 17.5795H124.86V0.572757L122.554 0.572757V14.5529H122.506L113.138 0.572757Z" fill="white"/>
<path fill-rule="evenodd" clip-rule="evenodd" d="M82.9809 12.6606L82.9802 12.659C82.5408 11.5523 82.3217 10.3575 82.3217 9.07611C82.3217 7.7947 82.5408 6.59995 82.9802 5.49325L82.9809 5.4916C83.4356 4.38742 84.0534 3.42751 84.835 2.61338L84.836 2.61234C85.6344 1.79762 86.5871 1.16278 87.6923 0.707548C88.8001 0.235243 90.0118 0 91.3258 0C92.6397 0 93.8514 0.235222 94.9591 0.707483C96.0644 1.16272 97.0094 1.7977 97.7921 2.61288C98.5899 3.42716 99.2081 4.38746 99.647 5.49234C100.103 6.59927 100.33 7.79432 100.33 9.07611C100.33 10.3579 100.103 11.553 99.647 12.6599C99.2081 13.7648 98.5899 14.7251 97.792 15.5394C97.0095 16.3544 96.0649 16.9972 94.9599 17.4684L94.9583 17.4691C93.8508 17.9251 92.6394 18.1522 91.3258 18.1522C90.0122 18.1522 88.8008 17.9251 87.6932 17.4691L87.6916 17.4684C86.5867 16.9972 85.6343 16.3544 84.836 15.5399L84.835 15.5388C84.0534 14.7247 83.4355 13.7648 82.9809 12.6606ZM97.6913 15.4416C98.476 14.6409 99.0845 13.6961 99.5169 12.6072C99.9653 11.5182 100.189 10.3412 100.189 9.07611C100.189 7.81101 99.9653 6.63399 99.5169 5.54504C99.0845 4.45609 98.476 3.51127 97.6913 2.71058C96.9226 1.90988 95.9938 1.28534 94.9049 0.836947C93.8159 0.372544 92.6229 0.140342 91.3258 0.140342C90.0287 0.140342 88.8356 0.372544 87.7467 0.836947C86.6577 1.28534 85.7209 1.90988 84.9362 2.71058C84.1676 3.51127 83.559 4.45609 83.1106 5.54504C82.6783 6.63399 82.4621 7.81101 82.4621 9.07611C82.4621 10.3412 82.6783 11.5182 83.1106 12.6072C83.559 13.6961 84.1676 14.6409 84.9362 15.4416C85.7209 16.2423 86.6577 16.8749 87.7467 17.3393C88.8356 17.7877 90.0287 18.0119 91.3258 18.0119C92.6229 18.0119 93.8159 17.7877 94.9049 17.3393C95.9938 16.8749 96.9226 16.2423 97.6913 15.4416ZM97.1511 6.506C96.8528 5.68938 96.4297 4.98501 95.8826 4.39103C95.3355 3.79702 94.6787 3.32757 93.9106 2.98273L93.9084 2.98176C93.1447 2.62323 92.2846 2.44256 91.3258 2.44256C90.3669 2.44256 89.5069 2.62323 88.7431 2.98174L88.741 2.98275C87.9729 3.32758 87.3161 3.79702 86.769 4.39103C86.2219 4.98501 85.7988 5.68938 85.5004 6.506C85.2024 7.30603 85.0526 8.16292 85.0526 9.07611C85.0526 9.98905 85.202 10.8532 85.5002 11.6696C85.7985 12.4701 86.2215 13.1668 86.769 13.7612C87.3163 14.3554 87.9735 14.8331 88.7421 15.194C89.5061 15.5368 90.3665 15.7097 91.3258 15.7097C92.2851 15.7097 93.1456 15.5368 93.9097 15.1939C94.6781 14.833 95.3353 14.3554 95.8826 13.7612C96.4301 13.1667 96.8532 12.47 97.1514 11.6694C97.4496 10.8531 97.599 9.98897 97.599 9.07611C97.599 8.16292 97.4492 7.30603 97.1511 6.506ZM97.283 11.7184C96.9787 12.5351 96.5463 13.2477 95.9858 13.8563C95.4253 14.4648 94.7528 14.9532 93.9681 15.3215C93.1834 15.6738 92.3026 15.85 91.3258 15.85C90.3489 15.85 89.4682 15.6738 88.6835 15.3215C87.8988 14.9532 87.2262 14.4648 86.6657 13.8563C86.1052 13.2477 85.6729 12.5351 85.3686 11.7184C85.0643 10.8857 84.9122 10.0049 84.9122 9.07611C84.9122 8.1473 85.0643 7.27454 85.3686 6.45783C85.6729 5.62511 86.1052 4.90448 86.6657 4.29595C87.2262 3.68742 87.8988 3.20701 88.6835 2.8547C89.4682 2.48638 90.3489 2.30222 91.3258 2.30222C92.3026 2.30222 93.1834 2.48638 93.9681 2.8547C94.7528 3.20701 95.4253 3.68742 95.9858 4.29595C96.5463 4.90448 96.9787 5.62511 97.283 6.45783C97.5872 7.27454 97.7394 8.1473 97.7394 9.07611C97.7394 10.0049 97.5872 10.8857 97.283 11.7184ZM0 0.432376L11.2582 0.432376V2.87493L0 2.87524L0 0.432376ZM0 10.1056L0 7.66144L10.6577 7.66268V10.1052L0 10.1056ZM0 15.2766L11.6906 15.2773L11.6906 17.7198L0 17.7198L0 15.2766ZM23.8771 0.432376L23.8771 15.2773L31.6838 15.2773V17.7198H21.2904L21.2904 0.432376L23.8771 0.432376ZM31.5435 15.4176V17.5795H21.4307L21.4307 0.572718L23.7367 0.572718L23.7367 15.4176L31.5435 15.4176ZM51.6104 0.432376V2.87491L40.3522 2.87703V0.432376L51.6104 0.432376ZM40.3522 7.66144L51.0099 7.66268V10.1052L40.3522 10.1056V7.66144ZM40.3522 17.7198V15.2608L52.0428 15.2775V17.7198H40.3522ZM62.2178 0.432376L67.1416 14.0677L72.2549 0.432376L75.0805 0.432376L68.268 17.7198H65.9143L59.2484 0.432376L62.2178 0.432376ZM72.3521 0.572718L74.8743 0.572718L68.1725 17.5795H66.0106L59.4529 0.572718L62.1192 0.572718L67.1156 14.4087H67.1636L72.3521 0.572718ZM109.971 0.432376L113.212 0.432376L122.413 14.163V0.432376L125 0.432376V17.7198H121.855L112.557 3.98601V17.7198H109.971V0.432376ZM112.417 3.59935H112.465L121.929 17.5795H124.86V0.572718L122.554 0.572718V14.5529H122.506L113.137 0.572718L110.111 0.572718V17.5795H112.417V3.59935ZM0.140342 0.572718L11.1179 0.572718V2.7346L0.140342 2.73489L0.140342 0.572718ZM10.5174 7.803V9.96488L0.140342 9.96522L0.140342 7.8018L10.5174 7.803ZM0.140342 17.5795L0.140342 15.4169L11.5503 15.4176L11.5503 17.5795L0.140342 17.5795ZM40.4926 0.572718L51.4701 0.572718V2.7346L40.4926 2.73666V0.572718ZM50.8696 7.803V9.96488L40.4926 9.96522V7.8018L50.8696 7.803ZM51.9025 15.4176V17.5795H40.4926V15.4014L51.9025 15.4176Z" fill="white"/>
</svg>
